scaled_model_static_coords.mot
version=1
datacolumns 20
datarows 21
range 0.000000 0.200000
inDegrees=yes
endheader
time	pelvis_tilt	pelvis_list	pelvis_rotation	hip_flexion_r	hip_adduction_r	hip_rotation_r	knee_angle_r	ankle_angle_r	hip_flexion_l	hip_adduction_l	hip_rotation_l	knee_angle_l	ankle_angle_l	pelvis_tx	pelvis_ty	pelvis_tz	lumbar_bending	lumbar_rotation	lumbar_extension
0.000000	9.406641	-0.835057	177.193702	6.587358	-1.027536	-2.695463	2.171841	-3.162926	5.848686	1.406073	-4.934277	2.633040	-1.040970	0.705680	0.973011	0.306054	1.675909	-2.243443	12.142722
0.010000	9.325842	-0.932564	177.065544	6.417632	-1.133092	-2.753492	2.296728	-3.019688	5.745979	1.445054	-4.506037	2.621983	-0.786025	0.705540	0.972574	0.305970	1.892180	-2.310538	11.951686
0.020000	9.288461	-0.994973	176.875132	6.292318	-1.195682	-2.913178	2.419986	-2.629697	5.604607	1.486177	-4.364540	2.764270	-0.351329	0.705521	0.971716	0.306028	2.157274	-2.313653	11.862158
0.030000	9.286013	-0.967236	176.840473	6.268396	-1.164182	-2.969419	2.448358	-2.495315	5.555933	1.467236	-4.486927	2.838189	-0.226840	0.705535	0.971481	0.306064	2.177606	-2.270859	11.878086
0.040000	9.278215	-0.926607	176.812413	6.237668	-1.119544	-3.028188	2.478144	-2.358755	5.500052	1.436508	-4.643108	2.913926	-0.105181	0.705546	0.971263	0.306093	2.180341	-2.217390	11.895346
0.050000	9.262188	-0.879644	176.792429	6.198663	-1.069549	-3.087607	2.507292	-2.228789	5.439348	1.398333	-4.807539	2.981742	0.004126	0.705550	0.971076	0.306106	2.169768	-2.161707	11.907839
0.060000	9.237831	-0.833571	176.782635	6.152530	-1.022489	-3.147796	2.533760	-2.111097	5.377101	1.358683	-4.954997	3.036013	0.094861	0.705544	0.970925	0.306101	2.152652	-2.112193	11.913130
0.070000	9.207577	-0.794246	176.785862	6.101921	-0.984852	-3.209875	2.557208	-2.008901	5.316495	1.323081	-5.066448	3.076662	0.164672	0.705527	0.970804	0.306078	2.136043	-2.074521	11.912084
0.080000	9.175615	-0.764738	176.805170	6.050392	-0.959766	-3.273797	2.579223	-1.925216	5.260770	1.295060	-5.132584	3.107488	0.212273	0.705500	0.970701	0.306045	2.124823	-2.050269	11.907884
0.090000	9.146919	-0.744508	176.842656	6.002022	-0.946118	-3.337248	2.602240	-1.863946	5.213628	1.275077	-5.152965	3.133025	0.235866	0.705465	0.970612	0.306008	2.120505	-2.036742	11.905022
0.100000	9.126199	-0.729099	176.898295	5.961125	-0.938239	-3.396791	2.627406	-1.828759	5.179215	1.259716	-5.132304	3.155526	0.235046	0.705426	0.970540	0.305972	2.121608	-2.027651	11.908260
0.110000	9.116838	-0.711131	176.969740	5.931885	-0.926962	-3.450126	2.652645	-1.820603	5.161513	1.242201	-5.076664	3.173400	0.214111	0.705387	0.970490	0.305945	2.125279	-2.015072	11.921346
0.120000	9.119919	-0.683373	177.053106	5.917533	-0.903013	-3.497333	2.672727	-1.835744	5.163271	1.215309	-4.991019	3.181814	0.182941	0.705353	0.970466	0.305927	2.129624	-1.992988	11.945537
0.130000	9.133598	-0.642581	177.144387	5.918933	-0.861518	-3.540382	2.681845	-1.865834	5.184804	1.175392	-4.878097	3.175103	0.154326	0.705335	0.970467	0.305918	2.135422	-1.960594	11.978499
0.140000	9.153329	-0.591217	177.241208	5.933235	-0.804477	-3.581882	2.677186	-1.900056	5.223222	1.124465	-4.738640	3.149793	0.139928	0.705344	0.970484	0.305915	2.145606	-1.922350	12.014519
0.150000	9.173237	-0.536248	177.343592	5.953867	-0.740031	-3.624261	2.660984	-1.928123	5.272562	1.069452	-4.573504	3.107024	0.146836	0.705389	0.970507	0.305909	2.163343	-1.884694	12.046450
0.160000	9.188014	-0.486687	177.452453	5.972526	-0.679820	-3.669748	2.639565	-1.943280	5.324929	1.020010	-4.386729	3.053156	0.175315	0.705470	0.970525	0.305894	2.191049	-1.852396	12.068428
0.170000	9.194446	-0.450496	177.567375	5.982204	-0.634905	-3.720974	2.620309	-1.945006	5.372775	0.985259	-4.187230	2.997312	0.219112	0.705578	0.970531	0.305868	2.229984	-1.826253	12.077775
0.180000	9.192104	-0.431635	177.685673	5.979641	-0.611468	-3.781370	2.608694	-1.939931	5.411600	0.970376	-3.987040	2.946956	0.268792	0.705701	0.970524	0.305828	2.279551	-1.802812	12.075159
0.190000	9.183167	-0.429296	177.802470	5.966220	-0.609297	-3.854146	2.606735	-1.939057	5.441361	0.975491	-3.796479	2.904834	0.315731	0.705826	0.970505	0.305776	2.337519	-1.776910	12.063323
0.200000	9.171483	-0.439363	177.911674	5.946896	-0.623580	-3.939840	2.613122	-1.952188	5.465649	0.996887	-3.619547	2.869034	0.354394	0.705945	0.970482	0.305713	2.401079	-1.745282	12.045430
